<svg width="27" height="53" viewBox="0 0 27 53" fill="none" xmlns="http://www.w3.org/2000/svg">
<path d="M2.61409 23.4142C2.61409 23.4142 2.61409 17.1641 2.61409 15.2835C2.61409 13.403 0.215027 13.0987 0.215027 13.0987V7.30327C0.215027 7.30327 5.36074 6.25018 5.9162 0C7.49058 0 10.5678 0 10.5678 0L24.4476 8.88291V24.4673L16.988 17.1641C16.988 17.1641 19.6903 17.1641 18.7873 14.227C17.5878 13.2868 10.2679 9.03335 10.2679 9.03335V20.7781C10.2679 20.7781 21.4488 24.1664 27 34.8547C25.5006 36.5095 25.1257 37.4156 25.1257 37.4156L24.9758 44.3428C24.9758 44.3428 14.1698 47.5055 8.69352 53C6.1786 50.4767 3.63301 47.1943 3.63301 47.1943L7.01009 43.8059L8.80939 45.6865C8.80939 45.6865 12.5613 42.9751 16.0884 41.6963C16.0884 40.0415 16.1633 32.8237 16.1633 32.8237C16.1633 32.8237 10.3429 25.9717 2.839 25.9717C2.68906 25.2948 2.61409 23.4142 2.61409 23.4142Z" fill="black"/>
</svg>
