<svg width="53" height="45" viewBox="0 0 53 45" fill="none" xmlns="http://www.w3.org/2000/svg">
<path d="M48.4062 19.4455L46.1581 21.9863L42.9335 13.5828L38.1444 12.0183L33.535 4.49356L26.5 0L28.8457 5.47216L28.666 9.77267L21.9217 8.99157L12.7118 5.37674L0 4.48247L9.68034 9.96573L15.8365 18.6622L2.54547 22.9627L19.1587 36.4478L25.721 33.4521L23.1645 40.0626L36.1626 43.3357L39.5824 44.9978L44.5913 41.2365L44.3716 32.9306L40.9717 36.2725L32.472 33.2724L34.6468 32.4491L28.8568 25.5035L37.3588 27.1655L34.6224 29.7063L42.4408 29.6087L41.3667 31.5637L49.0897 31.9542L52.3143 34.8856L52.9978 28.2418L48.4062 19.4455ZM31.0095 20.0335L28.2732 15.4401L34.6247 17.0045L36.6775 21.8909L31.0095 20.0335Z" fill="black"/>
</svg>
