<svg width="39" height="53" viewBox="0 0 39 53" fill="none" xmlns="http://www.w3.org/2000/svg">
<path d="M28.9257 16.631C27.4591 16.631 26.0728 16.9465 24.8158 17.4987L21.1248 38.9897L17.104 44.9716L14.6924 17.7397C13.3061 17.0342 11.737 16.6354 10.0698 16.6354C4.51114 16.631 0 21.0659 0 26.5351C0 28.7745 0.753343 30.8342 2.02823 32.4951L2.04606 32.517C2.23774 32.7624 2.43834 32.999 2.64785 33.2269L19.422 53L36.3967 33.1743C38.0104 31.417 38.9955 29.09 38.9955 26.5351C39 21.0659 34.4889 16.631 28.9257 16.631Z" fill="black"/>
<path d="M19.4978 23.0336C20.4473 20.5663 22.3774 18.5724 24.8113 17.4987L25.2615 13.6028L27.8603 13.6335C28.7385 13.6422 29.4562 12.9148 29.4651 12.012L29.4696 11.3371C29.474 10.4344 28.7608 9.685 27.8871 9.67623L23.2199 9.61926L23.26 3.79952C23.2734 1.73544 21.6419 0.0219418 19.636 3.01209e-05C17.63 -0.0218816 15.9807 1.64779 15.9718 3.71187L15.9317 9.53162L11.1352 9.47465C10.2571 9.46588 9.53938 10.1933 9.53047 11.0961L9.52601 11.771C9.52156 12.6738 10.2348 13.4231 11.1085 13.4319L14.4294 13.4713L14.6969 17.7354C16.8901 18.8528 18.6152 20.7373 19.4978 23.0336Z" fill="black"/>
</svg>
