<svg width="48" height="35" viewBox="0 0 48 35" fill="none" xmlns="http://www.w3.org/2000/svg">
<path d="M0.837157 29.1223C0.837157 29.1223 -1.65028 22.6922 1.96027 18.7064C5.57083 14.7206 10.5457 15.3667 10.5457 15.3667C10.5457 15.3667 9.30198 -1.21465 26.2316 0.0698214C43.1613 1.3543 39.7995 15.2422 39.7995 15.2422C39.7995 15.2422 49.6362 17.4297 47.7668 26.9426C45.8975 36.4555 35.9402 34.9141 35.9402 34.9141H24.0005C24.0005 34.9141 18.2643 30.9284 19.0105 23.9844C19.7568 17.0405 30.0909 14.9853 31.704 19.7418C33.3171 24.4982 30.709 25.4012 29.8346 25.6581C28.9603 25.915 28.9603 27.3941 30.709 27.1372C32.4502 26.8803 36.6412 25.3623 34.7115 18.6752C32.7819 11.9882 25.3573 13.2571 23.0583 13.5763C20.7517 13.8954 12.2944 17.1105 13.8472 29.0678C10.4251 29.06 0.837157 29.1223 0.837157 29.1223Z" fill="#010101"/>
</svg>
