<svg width="58" height="53" viewBox="0 0 58 53" fill="none" xmlns="http://www.w3.org/2000/svg">
<path d="M38.6591 39.4107L23.1624 31.2238C22.0712 30.6473 21.6538 29.2909 22.2312 28.1979C22.8087 27.1049 24.1644 26.6852 25.2556 27.2617L40.7447 35.4446C41.8359 36.0211 42.2533 37.3775 41.6759 38.4705C41.1061 39.5675 39.7427 39.9832 38.6591 39.4107Z" fill="black"/>
<path d="M29.3398 44.4097C29.3398 44.4097 30.972 46.3108 29.0882 47.8399C27.2045 49.369 27.049 49.4615 25.0716 48.3975L22.6164 47.1004C20.5097 45.9874 19.5114 43.7124 20.3936 42.0426L20.9269 41.0331L28.9027 25.936L31.5733 20.8809L32.7763 18.6038L35.447 13.5487L42.6047 0C62.2322 20.146 38.3949 34.7371 38.3949 34.7371L36.5222 38.2818L34.5292 37.2289L29.3398 44.4097Z" fill="black"/>
<path d="M25.5 23.7381L30 15.7381C18 12.2381 9.5 14.2381 0 20.7381C10.8 16.7381 21.5 21.0714 25.5 23.7381Z" fill="black"/>
<path d="M27 21.238L33.4891 9.92821C27.0001 3.73804 20.4998 3.73798 9.99992 7.23797C19.4999 8.23797 25.8704 16.4604 27 21.238Z" fill="black"/>
</svg>
