<svg width="48" height="49" viewBox="0 0 48 49" fill="none" xmlns="http://www.w3.org/2000/svg">
<path d="M31.7937 5.92227L42.9331 2.48963C21.776 -5.31868 8.31589 6.6767 8.1225 16.4088L8.43193 4.30026C-10.3658 26.1786 6.6914 43.0778 16.7091 44.6244L3.90655 45.4542C29.3183 56.8838 42.8558 37.7968 42.1982 30.0262L45.834 40.211C53.6084 12.6367 38.137 5.28101 31.7937 5.92227ZM30.44 32.8176C29.241 37.2687 28.39 40.8899 22.2788 40.0601C16.0903 39.3434 20.7317 35.0431 16.3997 32.4026C9.78568 28.4042 5.45368 28.2533 10.0177 19.1625C13.0347 20.709 9.747 23.3118 13.7696 26.1032C25.7599 32.629 28.8928 14.2587 13.3828 13.8438C18.1789 9.46808 24.2128 9.88301 27.8872 20.8599C30.8654 18.3703 29.9758 13.4665 25.6052 10.6752C36.7833 11.2033 32.6447 23.1609 32.6447 23.1609C37.2474 21.6521 36.3191 16.0316 36.3191 16.0316C42.1982 20.5204 36.2804 29.4227 30.44 32.8176Z" fill="#010101"/>
</svg>
